<svg width="34" height="33" viewBox="0 0 34 33" fill="none" xmlns="http://www.w3.org/2000/svg">
<g id="gmail" filter="url(#filter0_d_418_643)">
<g id="gmail_2">
<path id="Vector" d="M25.1869 6.73816L17.0867 13.0597L8.80127 6.73816V6.73987L8.81128 6.74841V15.6002L16.9932 22.0584L25.1869 15.8497V6.73816Z" fill="#EA4335"/>
<path id="Vector_2" d="M27.3143 5.20049L25.187 6.73816V15.8497L31.8807 10.7105V7.61462C31.8807 7.61462 31.0682 3.19298 27.3143 5.20049Z" fill="#FBBC05"/>
<path id="Vector_3" d="M25.187 15.8499V27.6677H30.3174C30.3174 27.6677 31.7773 27.5174 31.8824 25.8533V10.7107L25.187 15.8499Z" fill="#34A853"/>
<path id="Vector_4" d="M8.81166 27.6776V15.6001L8.80127 15.5916L8.81166 27.6776Z" fill="#C5221F"/>
<path id="Vector_5" d="M8.80139 6.74002L6.68582 5.2109C2.93187 3.20339 2.11768 7.62332 2.11768 7.62332V10.7192L8.80139 15.5918V6.74002Z" fill="#C5221F"/>
<path id="Vector_6" d="M8.80127 6.73987V15.5917L8.81166 15.6002V6.74841L8.80127 6.73987Z" fill="#C5221F"/>
<path id="Vector_7" d="M2.11768 10.7207V25.8633C2.22112 27.5291 3.68266 27.6777 3.68266 27.6777H8.81307L8.80139 15.5917L2.11768 10.7207Z" fill="#4285F4"/>
</g>
</g>
<defs>
<filter id="filter0_d_418_643" x="-1" y="-0.322266" width="36" height="36" filterUnits="userSpaceOnUse" color-interpolation-filters="sRGB">
<feFlood flood-opacity="0" result="BackgroundImageFix"/>
<feColorMatrix in="SourceAlpha" type="matrix" values="0 0 0 0 0 0 0 0 0 0 0 0 0 0 0 0 0 0 127 0" result="hardAlpha"/>
<feOffset dy="1"/>
<feGaussianBlur stdDeviation="1"/>
<feComposite in2="hardAlpha" operator="out"/>
<feColorMatrix type="matrix" values="0 0 0 0 0.0627451 0 0 0 0 0.0941176 0 0 0 0 0.156863 0 0 0 0.05 0"/>
<feBlend mode="normal" in2="BackgroundImageFix" result="effect1_dropShadow_418_643"/>
<feBlend mode="normal" in="SourceGraphic" in2="effect1_dropShadow_418_643" result="shape"/>
</filter>
</defs>
</svg>
